<svg xmlns="http://www.w3.org/2000/svg" viewBox="0 0 493.99 265.73"><defs><style>.cls-1{fill:#383d61;}.cls-2{fill:#5c7edd  ;}</style></defs><g id="Camada_2" data-name="Camada 2"><g id="Camada_1-2" data-name="Camada 1"><path class="cls-1" d="M109,1.39c-24.7,4.4-50.1,17.4-68.2,34.8a132.69,132.69,0,0,0-38.4,68.7c-3,14-3.2,40.1-.5,53,6.5,30.3,23.2,58.3,45.9,76.5,34.9,28.2,79.7,37.4,121.8,25.1,10.7-3.1,17.6-6.1,28.9-12.6a63,63,0,0,1,19.4-7.7l10.7-2.7,22.7,1.6c12.5.8,22.8,1.4,23,1.3s-2.8-2.3-6.5-4.8c-17.9-11.9-31.4-30.1-39.9-53.7-4.4-12.4-5.8-14.8-9-15.6s-6.6,1.5-27.9,18.5c-25.7,20.5-36.8,25.4-58.5,25.4-22.1,0-40.7-8-56.1-24C46.4,154,48,103.29,80,74c22.5-20.5,57.6-25.7,83.9-12.5,7.3,3.7,20,14,29.6,24,6.9,7.2,9.6,11,14.2,20,7.3,14.1,10,21.2,14.9,39.7,4.8,18,11.8,37.7,17,47.7,12.8,24.8,45.4,53.3,73.2,64.1,16.5,6.3,25.6,8.1,44.7,8.6,19.8.6,29.5-.6,44.7-5.6a133.93,133.93,0,0,0,89.4-98.6c3-13.4,3.2-40.6.5-53.5-6.2-28.9-21.8-56.1-42.6-73.7-24.7-21.2-51.7-31.7-84-33-36.5-1.4-70.3,12.1-97,38.8-7.1,7.1-20,24.5-20,27,0,.6-3.1-3.7-7-9.4-19.5-29.2-51.7-50.1-86.4-56.2C144.4-.41,119.1-.51,109,1.39Zm270.2,57.1c42.4,9.5,68.9,54.3,57.2,96.5a76.59,76.59,0,0,1-94.2,53.8c-16.3-4.5-31.9-14.3-41.1-25.8-10.4-12.9-14.6-23.2-16.5-40.5-3-26.2,6.6-51.2,25.4-66.7C330.4,59,354.7,52.89,379.2,58.49Z"/><path class="cls-2" d="M373.79,65.37c-4.32-.35-30.14-2.49-40.45,15.51a32.55,32.55,0,0,0,1.35,33.44,32,32,0,0,0,13.52,10.94c6.31,2.68,9.18,1.35,14.52,2.54,14.51,3.22,25.4,20.17,28.32,33.71.91,4.22,1.1,9.82,1.48,21,.21,6.26.19,11.43.13,15,2.88-1.46,33.92-17.92,38.84-53.8,3.95-28.81-11.18-53.85-28.63-66.76C398.83,74,388.6,66.6,373.79,65.37Z"/></g></g></svg>
